<mxfile host="app.diagrams.net" modified="2021-08-06T07:21:52.190Z" agent="5.0 (Windows NT 10.0; Win64; x64) AppleWebKit/537.36 (KHTML, like Gecko) Chrome/92.0.4515.131 Safari/537.36" etag="DZBEg7hv1ML_d_SJzifj" version="14.9.4" type="github">
  <diagram id="R2lEEEUBdFMjLlhIrx00" name="Page-1">
    <mxGraphModel dx="1422" dy="1862" grid="1" gridSize="10" guides="1" tooltips="1" connect="1" arrows="1" fold="1" page="1" pageScale="1" pageWidth="850" pageHeight="1100" math="0" shadow="0" extFonts="Permanent Marker^https://fonts.googleapis.com/css?family=Permanent+Marker">
      <root>
        <mxCell id="0" />
        <mxCell id="1" parent="0" />
        <mxCell id="C-vyLk0tnHw3VtMMgP7b-23" value="PCX_BOM_HEAD (A)" style="shape=table;startSize=30;container=1;collapsible=1;childLayout=tableLayout;fixedRows=1;rowLines=0;fontStyle=1;align=center;resizeLast=1;" parent="1" vertex="1">
          <mxGeometry x="20" y="40" width="250" height="240" as="geometry">
            <mxRectangle x="20" y="40" width="130" height="30" as="alternateBounds" />
          </mxGeometry>
        </mxCell>
        <mxCell id="C-vyLk0tnHw3VtMMgP7b-24" value="" style="shape=partialRectangle;collapsible=0;dropTarget=0;pointerEvents=0;fillColor=none;points=[[0,0.5],[1,0.5]];portConstraint=eastwest;top=0;left=0;right=0;bottom=1;" parent="C-vyLk0tnHw3VtMMgP7b-23" vertex="1">
          <mxGeometry y="30" width="250" height="30" as="geometry" />
        </mxCell>
        <mxCell id="C-vyLk0tnHw3VtMMgP7b-25" value="" style="shape=partialRectangle;overflow=hidden;connectable=0;fillColor=none;top=0;left=0;bottom=0;right=0;fontStyle=1;" parent="C-vyLk0tnHw3VtMMgP7b-24" vertex="1">
          <mxGeometry width="30" height="30" as="geometry" />
        </mxCell>
        <mxCell id="C-vyLk0tnHw3VtMMgP7b-26" value="PCX_KEY" style="shape=partialRectangle;overflow=hidden;connectable=0;fillColor=none;top=0;left=0;bottom=0;right=0;align=left;spacingLeft=6;fontStyle=5;" parent="C-vyLk0tnHw3VtMMgP7b-24" vertex="1">
          <mxGeometry x="30" width="220" height="30" as="geometry" />
        </mxCell>
        <mxCell id="KoXOzmwsFEsIkhyT5DC2-21" style="shape=partialRectangle;collapsible=0;dropTarget=0;pointerEvents=0;fillColor=none;points=[[0,0.5],[1,0.5]];portConstraint=eastwest;top=0;left=0;right=0;bottom=1;" vertex="1" parent="C-vyLk0tnHw3VtMMgP7b-23">
          <mxGeometry y="60" width="250" height="30" as="geometry" />
        </mxCell>
        <mxCell id="KoXOzmwsFEsIkhyT5DC2-22" style="shape=partialRectangle;overflow=hidden;connectable=0;fillColor=none;top=0;left=0;bottom=0;right=0;fontStyle=1;" vertex="1" parent="KoXOzmwsFEsIkhyT5DC2-21">
          <mxGeometry width="30" height="30" as="geometry" />
        </mxCell>
        <mxCell id="KoXOzmwsFEsIkhyT5DC2-23" value="HEAD_SEQ" style="shape=partialRectangle;overflow=hidden;connectable=0;fillColor=none;top=0;left=0;bottom=0;right=0;align=left;spacingLeft=6;fontStyle=5;" vertex="1" parent="KoXOzmwsFEsIkhyT5DC2-21">
          <mxGeometry x="30" width="220" height="30" as="geometry" />
        </mxCell>
        <mxCell id="KoXOzmwsFEsIkhyT5DC2-18" style="shape=partialRectangle;collapsible=0;dropTarget=0;pointerEvents=0;fillColor=none;points=[[0,0.5],[1,0.5]];portConstraint=eastwest;top=0;left=0;right=0;bottom=1;" vertex="1" parent="C-vyLk0tnHw3VtMMgP7b-23">
          <mxGeometry y="90" width="250" height="30" as="geometry" />
        </mxCell>
        <mxCell id="KoXOzmwsFEsIkhyT5DC2-19" style="shape=partialRectangle;overflow=hidden;connectable=0;fillColor=none;top=0;left=0;bottom=0;right=0;fontStyle=1;" vertex="1" parent="KoXOzmwsFEsIkhyT5DC2-18">
          <mxGeometry width="30" height="30" as="geometry" />
        </mxCell>
        <mxCell id="KoXOzmwsFEsIkhyT5DC2-20" value="FACTORY" style="shape=partialRectangle;overflow=hidden;connectable=0;fillColor=none;top=0;left=0;bottom=0;right=0;align=left;spacingLeft=6;fontStyle=5;" vertex="1" parent="KoXOzmwsFEsIkhyT5DC2-18">
          <mxGeometry x="30" width="220" height="30" as="geometry" />
        </mxCell>
        <mxCell id="KoXOzmwsFEsIkhyT5DC2-15" style="shape=partialRectangle;collapsible=0;dropTarget=0;pointerEvents=0;fillColor=none;points=[[0,0.5],[1,0.5]];portConstraint=eastwest;top=0;left=0;right=0;bottom=1;" vertex="1" parent="C-vyLk0tnHw3VtMMgP7b-23">
          <mxGeometry y="120" width="250" height="30" as="geometry" />
        </mxCell>
        <mxCell id="KoXOzmwsFEsIkhyT5DC2-16" style="shape=partialRectangle;overflow=hidden;connectable=0;fillColor=none;top=0;left=0;bottom=0;right=0;fontStyle=1;" vertex="1" parent="KoXOzmwsFEsIkhyT5DC2-15">
          <mxGeometry width="30" height="30" as="geometry" />
        </mxCell>
        <mxCell id="KoXOzmwsFEsIkhyT5DC2-17" value="WS_NO" style="shape=partialRectangle;overflow=hidden;connectable=0;fillColor=none;top=0;left=0;bottom=0;right=0;align=left;spacingLeft=6;fontStyle=5;" vertex="1" parent="KoXOzmwsFEsIkhyT5DC2-15">
          <mxGeometry x="30" width="220" height="30" as="geometry" />
        </mxCell>
        <mxCell id="KoXOzmwsFEsIkhyT5DC2-12" style="shape=partialRectangle;collapsible=0;dropTarget=0;pointerEvents=0;fillColor=none;points=[[0,0.5],[1,0.5]];portConstraint=eastwest;top=0;left=0;right=0;bottom=1;" vertex="1" parent="C-vyLk0tnHw3VtMMgP7b-23">
          <mxGeometry y="150" width="250" height="30" as="geometry" />
        </mxCell>
        <mxCell id="KoXOzmwsFEsIkhyT5DC2-13" style="shape=partialRectangle;overflow=hidden;connectable=0;fillColor=none;top=0;left=0;bottom=0;right=0;fontStyle=1;" vertex="1" parent="KoXOzmwsFEsIkhyT5DC2-12">
          <mxGeometry width="30" height="30" as="geometry" />
        </mxCell>
        <mxCell id="KoXOzmwsFEsIkhyT5DC2-14" value="SEASON_CD" style="shape=partialRectangle;overflow=hidden;connectable=0;fillColor=none;top=0;left=0;bottom=0;right=0;align=left;spacingLeft=6;fontStyle=5;" vertex="1" parent="KoXOzmwsFEsIkhyT5DC2-12">
          <mxGeometry x="30" width="220" height="30" as="geometry" />
        </mxCell>
        <mxCell id="KoXOzmwsFEsIkhyT5DC2-9" style="shape=partialRectangle;collapsible=0;dropTarget=0;pointerEvents=0;fillColor=none;points=[[0,0.5],[1,0.5]];portConstraint=eastwest;top=0;left=0;right=0;bottom=1;" vertex="1" parent="C-vyLk0tnHw3VtMMgP7b-23">
          <mxGeometry y="180" width="250" height="30" as="geometry" />
        </mxCell>
        <mxCell id="KoXOzmwsFEsIkhyT5DC2-10" style="shape=partialRectangle;overflow=hidden;connectable=0;fillColor=none;top=0;left=0;bottom=0;right=0;fontStyle=1;" vertex="1" parent="KoXOzmwsFEsIkhyT5DC2-9">
          <mxGeometry width="30" height="30" as="geometry" />
        </mxCell>
        <mxCell id="KoXOzmwsFEsIkhyT5DC2-11" value="DEV_STYLE_ID" style="shape=partialRectangle;overflow=hidden;connectable=0;fillColor=none;top=0;left=0;bottom=0;right=0;align=left;spacingLeft=6;fontStyle=5;" vertex="1" parent="KoXOzmwsFEsIkhyT5DC2-9">
          <mxGeometry x="30" width="220" height="30" as="geometry" />
        </mxCell>
        <mxCell id="KoXOzmwsFEsIkhyT5DC2-6" style="shape=partialRectangle;collapsible=0;dropTarget=0;pointerEvents=0;fillColor=none;points=[[0,0.5],[1,0.5]];portConstraint=eastwest;top=0;left=0;right=0;bottom=1;" vertex="1" parent="C-vyLk0tnHw3VtMMgP7b-23">
          <mxGeometry y="210" width="250" height="30" as="geometry" />
        </mxCell>
        <mxCell id="KoXOzmwsFEsIkhyT5DC2-7" style="shape=partialRectangle;overflow=hidden;connectable=0;fillColor=none;top=0;left=0;bottom=0;right=0;fontStyle=1;" vertex="1" parent="KoXOzmwsFEsIkhyT5DC2-6">
          <mxGeometry width="30" height="30" as="geometry" />
        </mxCell>
        <mxCell id="KoXOzmwsFEsIkhyT5DC2-8" value="DEV_COLORWAY_ID" style="shape=partialRectangle;overflow=hidden;connectable=0;fillColor=none;top=0;left=0;bottom=0;right=0;align=left;spacingLeft=6;fontStyle=5;" vertex="1" parent="KoXOzmwsFEsIkhyT5DC2-6">
          <mxGeometry x="30" width="220" height="30" as="geometry" />
        </mxCell>
        <mxCell id="KoXOzmwsFEsIkhyT5DC2-48" value="PCX_BOM_HEAD (A)" style="shape=table;startSize=30;container=1;collapsible=1;childLayout=tableLayout;fixedRows=1;rowLines=0;fontStyle=1;align=center;resizeLast=1;" vertex="1" parent="1">
          <mxGeometry x="20" y="40" width="250" height="240" as="geometry">
            <mxRectangle x="20" y="40" width="130" height="30" as="alternateBounds" />
          </mxGeometry>
        </mxCell>
        <mxCell id="KoXOzmwsFEsIkhyT5DC2-49" value="" style="shape=partialRectangle;collapsible=0;dropTarget=0;pointerEvents=0;fillColor=none;points=[[0,0.5],[1,0.5]];portConstraint=eastwest;top=0;left=0;right=0;bottom=1;" vertex="1" parent="KoXOzmwsFEsIkhyT5DC2-48">
          <mxGeometry y="30" width="250" height="30" as="geometry" />
        </mxCell>
        <mxCell id="KoXOzmwsFEsIkhyT5DC2-50" value="" style="shape=partialRectangle;overflow=hidden;connectable=0;fillColor=none;top=0;left=0;bottom=0;right=0;fontStyle=1;" vertex="1" parent="KoXOzmwsFEsIkhyT5DC2-49">
          <mxGeometry width="30" height="30" as="geometry" />
        </mxCell>
        <mxCell id="KoXOzmwsFEsIkhyT5DC2-51" value="PCX_KEY" style="shape=partialRectangle;overflow=hidden;connectable=0;fillColor=none;top=0;left=0;bottom=0;right=0;align=left;spacingLeft=6;fontStyle=5;" vertex="1" parent="KoXOzmwsFEsIkhyT5DC2-49">
          <mxGeometry x="30" width="220" height="30" as="geometry" />
        </mxCell>
        <mxCell id="KoXOzmwsFEsIkhyT5DC2-52" style="shape=partialRectangle;collapsible=0;dropTarget=0;pointerEvents=0;fillColor=none;points=[[0,0.5],[1,0.5]];portConstraint=eastwest;top=0;left=0;right=0;bottom=1;" vertex="1" parent="KoXOzmwsFEsIkhyT5DC2-48">
          <mxGeometry y="60" width="250" height="30" as="geometry" />
        </mxCell>
        <mxCell id="KoXOzmwsFEsIkhyT5DC2-53" style="shape=partialRectangle;overflow=hidden;connectable=0;fillColor=none;top=0;left=0;bottom=0;right=0;fontStyle=1;" vertex="1" parent="KoXOzmwsFEsIkhyT5DC2-52">
          <mxGeometry width="30" height="30" as="geometry" />
        </mxCell>
        <mxCell id="KoXOzmwsFEsIkhyT5DC2-54" value="HEAD_SEQ" style="shape=partialRectangle;overflow=hidden;connectable=0;fillColor=none;top=0;left=0;bottom=0;right=0;align=left;spacingLeft=6;fontStyle=5;" vertex="1" parent="KoXOzmwsFEsIkhyT5DC2-52">
          <mxGeometry x="30" width="220" height="30" as="geometry" />
        </mxCell>
        <mxCell id="KoXOzmwsFEsIkhyT5DC2-55" style="shape=partialRectangle;collapsible=0;dropTarget=0;pointerEvents=0;fillColor=none;points=[[0,0.5],[1,0.5]];portConstraint=eastwest;top=0;left=0;right=0;bottom=1;" vertex="1" parent="KoXOzmwsFEsIkhyT5DC2-48">
          <mxGeometry y="90" width="250" height="30" as="geometry" />
        </mxCell>
        <mxCell id="KoXOzmwsFEsIkhyT5DC2-56" style="shape=partialRectangle;overflow=hidden;connectable=0;fillColor=none;top=0;left=0;bottom=0;right=0;fontStyle=1;" vertex="1" parent="KoXOzmwsFEsIkhyT5DC2-55">
          <mxGeometry width="30" height="30" as="geometry" />
        </mxCell>
        <mxCell id="KoXOzmwsFEsIkhyT5DC2-57" value="FACTORY" style="shape=partialRectangle;overflow=hidden;connectable=0;fillColor=none;top=0;left=0;bottom=0;right=0;align=left;spacingLeft=6;fontStyle=5;" vertex="1" parent="KoXOzmwsFEsIkhyT5DC2-55">
          <mxGeometry x="30" width="220" height="30" as="geometry" />
        </mxCell>
        <mxCell id="KoXOzmwsFEsIkhyT5DC2-58" style="shape=partialRectangle;collapsible=0;dropTarget=0;pointerEvents=0;fillColor=none;points=[[0,0.5],[1,0.5]];portConstraint=eastwest;top=0;left=0;right=0;bottom=1;" vertex="1" parent="KoXOzmwsFEsIkhyT5DC2-48">
          <mxGeometry y="120" width="250" height="30" as="geometry" />
        </mxCell>
        <mxCell id="KoXOzmwsFEsIkhyT5DC2-59" style="shape=partialRectangle;overflow=hidden;connectable=0;fillColor=none;top=0;left=0;bottom=0;right=0;fontStyle=1;" vertex="1" parent="KoXOzmwsFEsIkhyT5DC2-58">
          <mxGeometry width="30" height="30" as="geometry" />
        </mxCell>
        <mxCell id="KoXOzmwsFEsIkhyT5DC2-60" value="WS_NO" style="shape=partialRectangle;overflow=hidden;connectable=0;fillColor=none;top=0;left=0;bottom=0;right=0;align=left;spacingLeft=6;fontStyle=5;" vertex="1" parent="KoXOzmwsFEsIkhyT5DC2-58">
          <mxGeometry x="30" width="220" height="30" as="geometry" />
        </mxCell>
        <mxCell id="KoXOzmwsFEsIkhyT5DC2-61" style="shape=partialRectangle;collapsible=0;dropTarget=0;pointerEvents=0;fillColor=none;points=[[0,0.5],[1,0.5]];portConstraint=eastwest;top=0;left=0;right=0;bottom=1;" vertex="1" parent="KoXOzmwsFEsIkhyT5DC2-48">
          <mxGeometry y="150" width="250" height="30" as="geometry" />
        </mxCell>
        <mxCell id="KoXOzmwsFEsIkhyT5DC2-62" style="shape=partialRectangle;overflow=hidden;connectable=0;fillColor=none;top=0;left=0;bottom=0;right=0;fontStyle=1;" vertex="1" parent="KoXOzmwsFEsIkhyT5DC2-61">
          <mxGeometry width="30" height="30" as="geometry" />
        </mxCell>
        <mxCell id="KoXOzmwsFEsIkhyT5DC2-63" value="SEASON_CD" style="shape=partialRectangle;overflow=hidden;connectable=0;fillColor=none;top=0;left=0;bottom=0;right=0;align=left;spacingLeft=6;fontStyle=5;" vertex="1" parent="KoXOzmwsFEsIkhyT5DC2-61">
          <mxGeometry x="30" width="220" height="30" as="geometry" />
        </mxCell>
        <mxCell id="KoXOzmwsFEsIkhyT5DC2-64" style="shape=partialRectangle;collapsible=0;dropTarget=0;pointerEvents=0;fillColor=none;points=[[0,0.5],[1,0.5]];portConstraint=eastwest;top=0;left=0;right=0;bottom=1;" vertex="1" parent="KoXOzmwsFEsIkhyT5DC2-48">
          <mxGeometry y="180" width="250" height="30" as="geometry" />
        </mxCell>
        <mxCell id="KoXOzmwsFEsIkhyT5DC2-65" style="shape=partialRectangle;overflow=hidden;connectable=0;fillColor=none;top=0;left=0;bottom=0;right=0;fontStyle=1;" vertex="1" parent="KoXOzmwsFEsIkhyT5DC2-64">
          <mxGeometry width="30" height="30" as="geometry" />
        </mxCell>
        <mxCell id="KoXOzmwsFEsIkhyT5DC2-66" value="DEV_STYLE_ID" style="shape=partialRectangle;overflow=hidden;connectable=0;fillColor=none;top=0;left=0;bottom=0;right=0;align=left;spacingLeft=6;fontStyle=5;" vertex="1" parent="KoXOzmwsFEsIkhyT5DC2-64">
          <mxGeometry x="30" width="220" height="30" as="geometry" />
        </mxCell>
        <mxCell id="KoXOzmwsFEsIkhyT5DC2-67" style="shape=partialRectangle;collapsible=0;dropTarget=0;pointerEvents=0;fillColor=none;points=[[0,0.5],[1,0.5]];portConstraint=eastwest;top=0;left=0;right=0;bottom=1;" vertex="1" parent="KoXOzmwsFEsIkhyT5DC2-48">
          <mxGeometry y="210" width="250" height="30" as="geometry" />
        </mxCell>
        <mxCell id="KoXOzmwsFEsIkhyT5DC2-68" style="shape=partialRectangle;overflow=hidden;connectable=0;fillColor=none;top=0;left=0;bottom=0;right=0;fontStyle=1;" vertex="1" parent="KoXOzmwsFEsIkhyT5DC2-67">
          <mxGeometry width="30" height="30" as="geometry" />
        </mxCell>
        <mxCell id="KoXOzmwsFEsIkhyT5DC2-69" value="DEV_COLORWAY_ID" style="shape=partialRectangle;overflow=hidden;connectable=0;fillColor=none;top=0;left=0;bottom=0;right=0;align=left;spacingLeft=6;fontStyle=5;" vertex="1" parent="KoXOzmwsFEsIkhyT5DC2-67">
          <mxGeometry x="30" width="220" height="30" as="geometry" />
        </mxCell>
        <mxCell id="KoXOzmwsFEsIkhyT5DC2-70" value="PCC_PUR_REQ (B)" style="shape=table;startSize=30;container=1;collapsible=1;childLayout=tableLayout;fixedRows=1;rowLines=0;fontStyle=1;align=center;resizeLast=1;" vertex="1" parent="1">
          <mxGeometry x="480" y="40" width="240" height="210" as="geometry">
            <mxRectangle x="20" y="40" width="130" height="30" as="alternateBounds" />
          </mxGeometry>
        </mxCell>
        <mxCell id="KoXOzmwsFEsIkhyT5DC2-71" value="" style="shape=partialRectangle;collapsible=0;dropTarget=0;pointerEvents=0;fillColor=none;points=[[0,0.5],[1,0.5]];portConstraint=eastwest;top=0;left=0;right=0;bottom=1;" vertex="1" parent="KoXOzmwsFEsIkhyT5DC2-70">
          <mxGeometry y="30" width="240" height="30" as="geometry" />
        </mxCell>
        <mxCell id="KoXOzmwsFEsIkhyT5DC2-72" value="" style="shape=partialRectangle;overflow=hidden;connectable=0;fillColor=none;top=0;left=0;bottom=0;right=0;fontStyle=1;" vertex="1" parent="KoXOzmwsFEsIkhyT5DC2-71">
          <mxGeometry width="30" height="30" as="geometry" />
        </mxCell>
        <mxCell id="KoXOzmwsFEsIkhyT5DC2-73" value="FACTORY" style="shape=partialRectangle;overflow=hidden;connectable=0;fillColor=none;top=0;left=0;bottom=0;right=0;align=left;spacingLeft=6;fontStyle=5;" vertex="1" parent="KoXOzmwsFEsIkhyT5DC2-71">
          <mxGeometry x="30" width="210" height="30" as="geometry" />
        </mxCell>
        <mxCell id="KoXOzmwsFEsIkhyT5DC2-74" style="shape=partialRectangle;collapsible=0;dropTarget=0;pointerEvents=0;fillColor=none;points=[[0,0.5],[1,0.5]];portConstraint=eastwest;top=0;left=0;right=0;bottom=1;" vertex="1" parent="KoXOzmwsFEsIkhyT5DC2-70">
          <mxGeometry y="60" width="240" height="30" as="geometry" />
        </mxCell>
        <mxCell id="KoXOzmwsFEsIkhyT5DC2-75" style="shape=partialRectangle;overflow=hidden;connectable=0;fillColor=none;top=0;left=0;bottom=0;right=0;fontStyle=1;" vertex="1" parent="KoXOzmwsFEsIkhyT5DC2-74">
          <mxGeometry width="30" height="30" as="geometry" />
        </mxCell>
        <mxCell id="KoXOzmwsFEsIkhyT5DC2-76" value="DEV_NAME" style="shape=partialRectangle;overflow=hidden;connectable=0;fillColor=none;top=0;left=0;bottom=0;right=0;align=left;spacingLeft=6;fontStyle=5;" vertex="1" parent="KoXOzmwsFEsIkhyT5DC2-74">
          <mxGeometry x="30" width="210" height="30" as="geometry" />
        </mxCell>
        <mxCell id="KoXOzmwsFEsIkhyT5DC2-77" style="shape=partialRectangle;collapsible=0;dropTarget=0;pointerEvents=0;fillColor=none;points=[[0,0.5],[1,0.5]];portConstraint=eastwest;top=0;left=0;right=0;bottom=1;" vertex="1" parent="KoXOzmwsFEsIkhyT5DC2-70">
          <mxGeometry y="90" width="240" height="30" as="geometry" />
        </mxCell>
        <mxCell id="KoXOzmwsFEsIkhyT5DC2-78" style="shape=partialRectangle;overflow=hidden;connectable=0;fillColor=none;top=0;left=0;bottom=0;right=0;fontStyle=1;" vertex="1" parent="KoXOzmwsFEsIkhyT5DC2-77">
          <mxGeometry width="30" height="30" as="geometry" />
        </mxCell>
        <mxCell id="KoXOzmwsFEsIkhyT5DC2-79" value="SEASON_CD" style="shape=partialRectangle;overflow=hidden;connectable=0;fillColor=none;top=0;left=0;bottom=0;right=0;align=left;spacingLeft=6;fontStyle=5;" vertex="1" parent="KoXOzmwsFEsIkhyT5DC2-77">
          <mxGeometry x="30" width="210" height="30" as="geometry" />
        </mxCell>
        <mxCell id="KoXOzmwsFEsIkhyT5DC2-80" style="shape=partialRectangle;collapsible=0;dropTarget=0;pointerEvents=0;fillColor=none;points=[[0,0.5],[1,0.5]];portConstraint=eastwest;top=0;left=0;right=0;bottom=1;" vertex="1" parent="KoXOzmwsFEsIkhyT5DC2-70">
          <mxGeometry y="120" width="240" height="30" as="geometry" />
        </mxCell>
        <mxCell id="KoXOzmwsFEsIkhyT5DC2-81" style="shape=partialRectangle;overflow=hidden;connectable=0;fillColor=none;top=0;left=0;bottom=0;right=0;fontStyle=1;" vertex="1" parent="KoXOzmwsFEsIkhyT5DC2-80">
          <mxGeometry width="30" height="30" as="geometry" />
        </mxCell>
        <mxCell id="KoXOzmwsFEsIkhyT5DC2-82" value="WS_NO" style="shape=partialRectangle;overflow=hidden;connectable=0;fillColor=none;top=0;left=0;bottom=0;right=0;align=left;spacingLeft=6;fontStyle=5;" vertex="1" parent="KoXOzmwsFEsIkhyT5DC2-80">
          <mxGeometry x="30" width="210" height="30" as="geometry" />
        </mxCell>
        <mxCell id="KoXOzmwsFEsIkhyT5DC2-83" style="shape=partialRectangle;collapsible=0;dropTarget=0;pointerEvents=0;fillColor=none;points=[[0,0.5],[1,0.5]];portConstraint=eastwest;top=0;left=0;right=0;bottom=1;" vertex="1" parent="KoXOzmwsFEsIkhyT5DC2-70">
          <mxGeometry y="150" width="240" height="30" as="geometry" />
        </mxCell>
        <mxCell id="KoXOzmwsFEsIkhyT5DC2-84" style="shape=partialRectangle;overflow=hidden;connectable=0;fillColor=none;top=0;left=0;bottom=0;right=0;fontStyle=1;" vertex="1" parent="KoXOzmwsFEsIkhyT5DC2-83">
          <mxGeometry width="30" height="30" as="geometry" />
        </mxCell>
        <mxCell id="KoXOzmwsFEsIkhyT5DC2-85" value="DEV_COLORWAY_ID" style="shape=partialRectangle;overflow=hidden;connectable=0;fillColor=none;top=0;left=0;bottom=0;right=0;align=left;spacingLeft=6;fontStyle=5;" vertex="1" parent="KoXOzmwsFEsIkhyT5DC2-83">
          <mxGeometry x="30" width="210" height="30" as="geometry" />
        </mxCell>
        <mxCell id="KoXOzmwsFEsIkhyT5DC2-86" style="shape=partialRectangle;collapsible=0;dropTarget=0;pointerEvents=0;fillColor=none;points=[[0,0.5],[1,0.5]];portConstraint=eastwest;top=0;left=0;right=0;bottom=1;" vertex="1" parent="KoXOzmwsFEsIkhyT5DC2-70">
          <mxGeometry y="180" width="240" height="30" as="geometry" />
        </mxCell>
        <mxCell id="KoXOzmwsFEsIkhyT5DC2-87" style="shape=partialRectangle;overflow=hidden;connectable=0;fillColor=none;top=0;left=0;bottom=0;right=0;fontStyle=1;" vertex="1" parent="KoXOzmwsFEsIkhyT5DC2-86">
          <mxGeometry width="30" height="30" as="geometry" />
        </mxCell>
        <mxCell id="KoXOzmwsFEsIkhyT5DC2-88" value="SAMPLE_ETS" style="shape=partialRectangle;overflow=hidden;connectable=0;fillColor=none;top=0;left=0;bottom=0;right=0;align=left;spacingLeft=6;fontStyle=5;" vertex="1" parent="KoXOzmwsFEsIkhyT5DC2-86">
          <mxGeometry x="30" width="210" height="30" as="geometry" />
        </mxCell>
        <mxCell id="KoXOzmwsFEsIkhyT5DC2-95" value="PCC_PUR_REQ" style="shape=table;startSize=30;container=1;collapsible=1;childLayout=tableLayout;fixedRows=1;rowLines=0;fontStyle=1;align=center;resizeLast=1;" vertex="1" parent="1">
          <mxGeometry x="750" y="40" width="250" height="210" as="geometry">
            <mxRectangle x="20" y="40" width="130" height="30" as="alternateBounds" />
          </mxGeometry>
        </mxCell>
        <mxCell id="KoXOzmwsFEsIkhyT5DC2-96" value="" style="shape=partialRectangle;collapsible=0;dropTarget=0;pointerEvents=0;fillColor=none;points=[[0,0.5],[1,0.5]];portConstraint=eastwest;top=0;left=0;right=0;bottom=1;" vertex="1" parent="KoXOzmwsFEsIkhyT5DC2-95">
          <mxGeometry y="30" width="250" height="30" as="geometry" />
        </mxCell>
        <mxCell id="KoXOzmwsFEsIkhyT5DC2-97" value="" style="shape=partialRectangle;overflow=hidden;connectable=0;fillColor=none;top=0;left=0;bottom=0;right=0;fontStyle=1;" vertex="1" parent="KoXOzmwsFEsIkhyT5DC2-96">
          <mxGeometry width="30" height="30" as="geometry" />
        </mxCell>
        <mxCell id="KoXOzmwsFEsIkhyT5DC2-98" value="FACTORY" style="shape=partialRectangle;overflow=hidden;connectable=0;fillColor=none;top=0;left=0;bottom=0;right=0;align=left;spacingLeft=6;fontStyle=5;" vertex="1" parent="KoXOzmwsFEsIkhyT5DC2-96">
          <mxGeometry x="30" width="220" height="30" as="geometry" />
        </mxCell>
        <mxCell id="KoXOzmwsFEsIkhyT5DC2-99" style="shape=partialRectangle;collapsible=0;dropTarget=0;pointerEvents=0;fillColor=none;points=[[0,0.5],[1,0.5]];portConstraint=eastwest;top=0;left=0;right=0;bottom=1;" vertex="1" parent="KoXOzmwsFEsIkhyT5DC2-95">
          <mxGeometry y="60" width="250" height="30" as="geometry" />
        </mxCell>
        <mxCell id="KoXOzmwsFEsIkhyT5DC2-100" style="shape=partialRectangle;overflow=hidden;connectable=0;fillColor=none;top=0;left=0;bottom=0;right=0;fontStyle=1;" vertex="1" parent="KoXOzmwsFEsIkhyT5DC2-99">
          <mxGeometry width="30" height="30" as="geometry" />
        </mxCell>
        <mxCell id="KoXOzmwsFEsIkhyT5DC2-101" value="DEV_NAME" style="shape=partialRectangle;overflow=hidden;connectable=0;fillColor=none;top=0;left=0;bottom=0;right=0;align=left;spacingLeft=6;fontStyle=5;" vertex="1" parent="KoXOzmwsFEsIkhyT5DC2-99">
          <mxGeometry x="30" width="220" height="30" as="geometry" />
        </mxCell>
        <mxCell id="KoXOzmwsFEsIkhyT5DC2-102" style="shape=partialRectangle;collapsible=0;dropTarget=0;pointerEvents=0;fillColor=none;points=[[0,0.5],[1,0.5]];portConstraint=eastwest;top=0;left=0;right=0;bottom=1;" vertex="1" parent="KoXOzmwsFEsIkhyT5DC2-95">
          <mxGeometry y="90" width="250" height="30" as="geometry" />
        </mxCell>
        <mxCell id="KoXOzmwsFEsIkhyT5DC2-103" style="shape=partialRectangle;overflow=hidden;connectable=0;fillColor=none;top=0;left=0;bottom=0;right=0;fontStyle=1;" vertex="1" parent="KoXOzmwsFEsIkhyT5DC2-102">
          <mxGeometry width="30" height="30" as="geometry" />
        </mxCell>
        <mxCell id="KoXOzmwsFEsIkhyT5DC2-104" value="SEASON_CD" style="shape=partialRectangle;overflow=hidden;connectable=0;fillColor=none;top=0;left=0;bottom=0;right=0;align=left;spacingLeft=6;fontStyle=5;" vertex="1" parent="KoXOzmwsFEsIkhyT5DC2-102">
          <mxGeometry x="30" width="220" height="30" as="geometry" />
        </mxCell>
        <mxCell id="KoXOzmwsFEsIkhyT5DC2-105" style="shape=partialRectangle;collapsible=0;dropTarget=0;pointerEvents=0;fillColor=none;points=[[0,0.5],[1,0.5]];portConstraint=eastwest;top=0;left=0;right=0;bottom=1;" vertex="1" parent="KoXOzmwsFEsIkhyT5DC2-95">
          <mxGeometry y="120" width="250" height="30" as="geometry" />
        </mxCell>
        <mxCell id="KoXOzmwsFEsIkhyT5DC2-106" style="shape=partialRectangle;overflow=hidden;connectable=0;fillColor=none;top=0;left=0;bottom=0;right=0;fontStyle=1;" vertex="1" parent="KoXOzmwsFEsIkhyT5DC2-105">
          <mxGeometry width="30" height="30" as="geometry" />
        </mxCell>
        <mxCell id="KoXOzmwsFEsIkhyT5DC2-107" value="WS_NO" style="shape=partialRectangle;overflow=hidden;connectable=0;fillColor=none;top=0;left=0;bottom=0;right=0;align=left;spacingLeft=6;fontStyle=5;" vertex="1" parent="KoXOzmwsFEsIkhyT5DC2-105">
          <mxGeometry x="30" width="220" height="30" as="geometry" />
        </mxCell>
        <mxCell id="KoXOzmwsFEsIkhyT5DC2-108" style="shape=partialRectangle;collapsible=0;dropTarget=0;pointerEvents=0;fillColor=none;points=[[0,0.5],[1,0.5]];portConstraint=eastwest;top=0;left=0;right=0;bottom=1;" vertex="1" parent="KoXOzmwsFEsIkhyT5DC2-95">
          <mxGeometry y="150" width="250" height="30" as="geometry" />
        </mxCell>
        <mxCell id="KoXOzmwsFEsIkhyT5DC2-109" style="shape=partialRectangle;overflow=hidden;connectable=0;fillColor=none;top=0;left=0;bottom=0;right=0;fontStyle=1;" vertex="1" parent="KoXOzmwsFEsIkhyT5DC2-108">
          <mxGeometry width="30" height="30" as="geometry" />
        </mxCell>
        <mxCell id="KoXOzmwsFEsIkhyT5DC2-110" value="DEV_COLORWAY_ID" style="shape=partialRectangle;overflow=hidden;connectable=0;fillColor=none;top=0;left=0;bottom=0;right=0;align=left;spacingLeft=6;fontStyle=5;" vertex="1" parent="KoXOzmwsFEsIkhyT5DC2-108">
          <mxGeometry x="30" width="220" height="30" as="geometry" />
        </mxCell>
        <mxCell id="KoXOzmwsFEsIkhyT5DC2-111" style="shape=partialRectangle;collapsible=0;dropTarget=0;pointerEvents=0;fillColor=none;points=[[0,0.5],[1,0.5]];portConstraint=eastwest;top=0;left=0;right=0;bottom=1;" vertex="1" parent="KoXOzmwsFEsIkhyT5DC2-95">
          <mxGeometry y="180" width="250" height="30" as="geometry" />
        </mxCell>
        <mxCell id="KoXOzmwsFEsIkhyT5DC2-112" style="shape=partialRectangle;overflow=hidden;connectable=0;fillColor=none;top=0;left=0;bottom=0;right=0;fontStyle=1;" vertex="1" parent="KoXOzmwsFEsIkhyT5DC2-111">
          <mxGeometry width="30" height="30" as="geometry" />
        </mxCell>
        <mxCell id="KoXOzmwsFEsIkhyT5DC2-113" value="SAMPLE_ETS (MAX)" style="shape=partialRectangle;overflow=hidden;connectable=0;fillColor=none;top=0;left=0;bottom=0;right=0;align=left;spacingLeft=6;fontStyle=5;" vertex="1" parent="KoXOzmwsFEsIkhyT5DC2-111">
          <mxGeometry x="30" width="220" height="30" as="geometry" />
        </mxCell>
        <mxCell id="KoXOzmwsFEsIkhyT5DC2-114" style="edgeStyle=orthogonalEdgeStyle;rounded=0;orthogonalLoop=1;jettySize=auto;html=1;exitX=0.75;exitY=0;exitDx=0;exitDy=0;entryX=0.832;entryY=0.01;entryDx=0;entryDy=0;entryPerimeter=0;" edge="1" parent="1" source="KoXOzmwsFEsIkhyT5DC2-95" target="KoXOzmwsFEsIkhyT5DC2-95">
          <mxGeometry relative="1" as="geometry" />
        </mxCell>
        <mxCell id="KoXOzmwsFEsIkhyT5DC2-121" value="" style="line;strokeWidth=1;rotatable=0;dashed=0;labelPosition=right;align=left;verticalAlign=middle;spacingTop=0;spacingLeft=6;points=[];portConstraint=eastwest;" vertex="1" parent="1">
          <mxGeometry x="720" y="80" width="30" height="10" as="geometry" />
        </mxCell>
        <mxCell id="KoXOzmwsFEsIkhyT5DC2-122" value="" style="endArrow=none;html=1;rounded=0;exitX=1;exitY=0.5;exitDx=0;exitDy=0;entryX=0;entryY=0.5;entryDx=0;entryDy=0;" edge="1" parent="1" source="KoXOzmwsFEsIkhyT5DC2-83" target="KoXOzmwsFEsIkhyT5DC2-108">
          <mxGeometry relative="1" as="geometry">
            <mxPoint x="720" y="210" as="sourcePoint" />
            <mxPoint x="750" y="210" as="targetPoint" />
          </mxGeometry>
        </mxCell>
        <mxCell id="KoXOzmwsFEsIkhyT5DC2-123" value="" style="endArrow=none;html=1;rounded=0;" edge="1" parent="1">
          <mxGeometry relative="1" as="geometry">
            <mxPoint x="721" y="175" as="sourcePoint" />
            <mxPoint x="750" y="175" as="targetPoint" />
          </mxGeometry>
        </mxCell>
        <mxCell id="KoXOzmwsFEsIkhyT5DC2-124" value="" style="endArrow=none;html=1;rounded=0;" edge="1" parent="1">
          <mxGeometry relative="1" as="geometry">
            <mxPoint x="720" y="145" as="sourcePoint" />
            <mxPoint x="750" y="145" as="targetPoint" />
            <Array as="points">
              <mxPoint x="750" y="145" />
            </Array>
          </mxGeometry>
        </mxCell>
        <mxCell id="KoXOzmwsFEsIkhyT5DC2-125" value="" style="endArrow=none;html=1;rounded=0;" edge="1" parent="1">
          <mxGeometry relative="1" as="geometry">
            <mxPoint x="720" y="120" as="sourcePoint" />
            <mxPoint x="750" y="120" as="targetPoint" />
          </mxGeometry>
        </mxCell>
        <mxCell id="KoXOzmwsFEsIkhyT5DC2-126" value="" style="endArrow=none;html=1;rounded=0;" edge="1" parent="1">
          <mxGeometry relative="1" as="geometry">
            <mxPoint x="720" y="230" as="sourcePoint" />
            <mxPoint x="750" y="230" as="targetPoint" />
          </mxGeometry>
        </mxCell>
        <mxCell id="KoXOzmwsFEsIkhyT5DC2-127" value="PCC_PLAN_OPCD" style="shape=table;startSize=30;container=1;collapsible=1;childLayout=tableLayout;fixedRows=1;rowLines=0;fontStyle=1;align=center;resizeLast=1;" vertex="1" parent="1">
          <mxGeometry x="20" y="340" width="250" height="120" as="geometry">
            <mxRectangle x="20" y="40" width="130" height="30" as="alternateBounds" />
          </mxGeometry>
        </mxCell>
        <mxCell id="KoXOzmwsFEsIkhyT5DC2-128" value="" style="shape=partialRectangle;collapsible=0;dropTarget=0;pointerEvents=0;fillColor=none;points=[[0,0.5],[1,0.5]];portConstraint=eastwest;top=0;left=0;right=0;bottom=1;" vertex="1" parent="KoXOzmwsFEsIkhyT5DC2-127">
          <mxGeometry y="30" width="250" height="30" as="geometry" />
        </mxCell>
        <mxCell id="KoXOzmwsFEsIkhyT5DC2-129" value="" style="shape=partialRectangle;overflow=hidden;connectable=0;fillColor=none;top=0;left=0;bottom=0;right=0;fontStyle=1;" vertex="1" parent="KoXOzmwsFEsIkhyT5DC2-128">
          <mxGeometry width="30" height="30" as="geometry" />
        </mxCell>
        <mxCell id="KoXOzmwsFEsIkhyT5DC2-130" value="FACTORY" style="shape=partialRectangle;overflow=hidden;connectable=0;fillColor=none;top=0;left=0;bottom=0;right=0;align=left;spacingLeft=6;fontStyle=5;" vertex="1" parent="KoXOzmwsFEsIkhyT5DC2-128">
          <mxGeometry x="30" width="220" height="30" as="geometry" />
        </mxCell>
        <mxCell id="KoXOzmwsFEsIkhyT5DC2-131" style="shape=partialRectangle;collapsible=0;dropTarget=0;pointerEvents=0;fillColor=none;points=[[0,0.5],[1,0.5]];portConstraint=eastwest;top=0;left=0;right=0;bottom=1;" vertex="1" parent="KoXOzmwsFEsIkhyT5DC2-127">
          <mxGeometry y="60" width="250" height="30" as="geometry" />
        </mxCell>
        <mxCell id="KoXOzmwsFEsIkhyT5DC2-132" style="shape=partialRectangle;overflow=hidden;connectable=0;fillColor=none;top=0;left=0;bottom=0;right=0;fontStyle=1;" vertex="1" parent="KoXOzmwsFEsIkhyT5DC2-131">
          <mxGeometry width="30" height="30" as="geometry" />
        </mxCell>
        <mxCell id="KoXOzmwsFEsIkhyT5DC2-133" value="WS_NO" style="shape=partialRectangle;overflow=hidden;connectable=0;fillColor=none;top=0;left=0;bottom=0;right=0;align=left;spacingLeft=6;fontStyle=5;" vertex="1" parent="KoXOzmwsFEsIkhyT5DC2-131">
          <mxGeometry x="30" width="220" height="30" as="geometry" />
        </mxCell>
        <mxCell id="KoXOzmwsFEsIkhyT5DC2-134" style="shape=partialRectangle;collapsible=0;dropTarget=0;pointerEvents=0;fillColor=none;points=[[0,0.5],[1,0.5]];portConstraint=eastwest;top=0;left=0;right=0;bottom=1;" vertex="1" parent="KoXOzmwsFEsIkhyT5DC2-127">
          <mxGeometry y="90" width="250" height="30" as="geometry" />
        </mxCell>
        <mxCell id="KoXOzmwsFEsIkhyT5DC2-135" style="shape=partialRectangle;overflow=hidden;connectable=0;fillColor=none;top=0;left=0;bottom=0;right=0;fontStyle=1;" vertex="1" parent="KoXOzmwsFEsIkhyT5DC2-134">
          <mxGeometry width="30" height="30" as="geometry" />
        </mxCell>
        <mxCell id="KoXOzmwsFEsIkhyT5DC2-136" value="OP_CD" style="shape=partialRectangle;overflow=hidden;connectable=0;fillColor=none;top=0;left=0;bottom=0;right=0;align=left;spacingLeft=6;fontStyle=5;" vertex="1" parent="KoXOzmwsFEsIkhyT5DC2-134">
          <mxGeometry x="30" width="220" height="30" as="geometry" />
        </mxCell>
        <mxCell id="KoXOzmwsFEsIkhyT5DC2-149" value="PCX_CBD_HEAD " style="shape=table;startSize=30;container=1;collapsible=1;childLayout=tableLayout;fixedRows=1;rowLines=0;fontStyle=1;align=center;resizeLast=1;" vertex="1" parent="1">
          <mxGeometry x="475" y="440" width="250" height="200" as="geometry">
            <mxRectangle x="20" y="40" width="130" height="30" as="alternateBounds" />
          </mxGeometry>
        </mxCell>
        <mxCell id="KoXOzmwsFEsIkhyT5DC2-150" value="" style="shape=partialRectangle;collapsible=0;dropTarget=0;pointerEvents=0;fillColor=none;points=[[0,0.5],[1,0.5]];portConstraint=eastwest;top=0;left=0;right=0;bottom=1;" vertex="1" parent="KoXOzmwsFEsIkhyT5DC2-149">
          <mxGeometry y="30" width="250" height="30" as="geometry" />
        </mxCell>
        <mxCell id="KoXOzmwsFEsIkhyT5DC2-151" value="" style="shape=partialRectangle;overflow=hidden;connectable=0;fillColor=none;top=0;left=0;bottom=0;right=0;fontStyle=1;" vertex="1" parent="KoXOzmwsFEsIkhyT5DC2-150">
          <mxGeometry width="30" height="30" as="geometry" />
        </mxCell>
        <mxCell id="KoXOzmwsFEsIkhyT5DC2-152" value="REF_PCX_KEY" style="shape=partialRectangle;overflow=hidden;connectable=0;fillColor=none;top=0;left=0;bottom=0;right=0;align=left;spacingLeft=6;fontStyle=5;" vertex="1" parent="KoXOzmwsFEsIkhyT5DC2-150">
          <mxGeometry x="30" width="220" height="30" as="geometry" />
        </mxCell>
        <mxCell id="KoXOzmwsFEsIkhyT5DC2-153" style="shape=partialRectangle;collapsible=0;dropTarget=0;pointerEvents=0;fillColor=none;points=[[0,0.5],[1,0.5]];portConstraint=eastwest;top=0;left=0;right=0;bottom=1;" vertex="1" parent="KoXOzmwsFEsIkhyT5DC2-149">
          <mxGeometry y="60" width="250" height="30" as="geometry" />
        </mxCell>
        <mxCell id="KoXOzmwsFEsIkhyT5DC2-154" style="shape=partialRectangle;overflow=hidden;connectable=0;fillColor=none;top=0;left=0;bottom=0;right=0;fontStyle=1;" vertex="1" parent="KoXOzmwsFEsIkhyT5DC2-153">
          <mxGeometry width="30" height="30" as="geometry" />
        </mxCell>
        <mxCell id="KoXOzmwsFEsIkhyT5DC2-155" value="REF_HEAD_SEQ (MAX)" style="shape=partialRectangle;overflow=hidden;connectable=0;fillColor=none;top=0;left=0;bottom=0;right=0;align=left;spacingLeft=6;fontStyle=5;" vertex="1" parent="KoXOzmwsFEsIkhyT5DC2-153">
          <mxGeometry x="30" width="220" height="30" as="geometry" />
        </mxCell>
        <mxCell id="KoXOzmwsFEsIkhyT5DC2-156" style="shape=partialRectangle;collapsible=0;dropTarget=0;pointerEvents=0;fillColor=none;points=[[0,0.5],[1,0.5]];portConstraint=eastwest;top=0;left=0;right=0;bottom=1;" vertex="1" parent="KoXOzmwsFEsIkhyT5DC2-149">
          <mxGeometry y="90" width="250" height="30" as="geometry" />
        </mxCell>
        <mxCell id="KoXOzmwsFEsIkhyT5DC2-157" style="shape=partialRectangle;overflow=hidden;connectable=0;fillColor=none;top=0;left=0;bottom=0;right=0;fontStyle=1;" vertex="1" parent="KoXOzmwsFEsIkhyT5DC2-156">
          <mxGeometry width="30" height="30" as="geometry" />
        </mxCell>
        <mxCell id="KoXOzmwsFEsIkhyT5DC2-158" value="CBD_KEY" style="shape=partialRectangle;overflow=hidden;connectable=0;fillColor=none;top=0;left=0;bottom=0;right=0;align=left;spacingLeft=6;fontStyle=5;" vertex="1" parent="KoXOzmwsFEsIkhyT5DC2-156">
          <mxGeometry x="30" width="220" height="30" as="geometry" />
        </mxCell>
        <mxCell id="KoXOzmwsFEsIkhyT5DC2-159" style="shape=partialRectangle;collapsible=0;dropTarget=0;pointerEvents=0;fillColor=none;points=[[0,0.5],[1,0.5]];portConstraint=eastwest;top=0;left=0;right=0;bottom=1;" vertex="1" parent="KoXOzmwsFEsIkhyT5DC2-149">
          <mxGeometry y="120" width="250" height="40" as="geometry" />
        </mxCell>
        <mxCell id="KoXOzmwsFEsIkhyT5DC2-160" style="shape=partialRectangle;overflow=hidden;connectable=0;fillColor=none;top=0;left=0;bottom=0;right=0;fontStyle=1;" vertex="1" parent="KoXOzmwsFEsIkhyT5DC2-159">
          <mxGeometry width="30" height="40" as="geometry" />
        </mxCell>
        <mxCell id="KoXOzmwsFEsIkhyT5DC2-161" value="CBD_VER" style="shape=partialRectangle;overflow=hidden;connectable=0;fillColor=none;top=0;left=0;bottom=0;right=0;align=left;spacingLeft=6;fontStyle=5;" vertex="1" parent="KoXOzmwsFEsIkhyT5DC2-159">
          <mxGeometry x="30" width="220" height="40" as="geometry" />
        </mxCell>
        <mxCell id="KoXOzmwsFEsIkhyT5DC2-225" style="shape=partialRectangle;collapsible=0;dropTarget=0;pointerEvents=0;fillColor=none;points=[[0,0.5],[1,0.5]];portConstraint=eastwest;top=0;left=0;right=0;bottom=1;" vertex="1" parent="KoXOzmwsFEsIkhyT5DC2-149">
          <mxGeometry y="160" width="250" height="40" as="geometry" />
        </mxCell>
        <mxCell id="KoXOzmwsFEsIkhyT5DC2-226" style="shape=partialRectangle;overflow=hidden;connectable=0;fillColor=none;top=0;left=0;bottom=0;right=0;fontStyle=1;" vertex="1" parent="KoXOzmwsFEsIkhyT5DC2-225">
          <mxGeometry width="30" height="40" as="geometry" />
        </mxCell>
        <mxCell id="KoXOzmwsFEsIkhyT5DC2-227" value="SEASON_CD" style="shape=partialRectangle;overflow=hidden;connectable=0;fillColor=none;top=0;left=0;bottom=0;right=0;align=left;spacingLeft=6;fontStyle=5;" vertex="1" parent="KoXOzmwsFEsIkhyT5DC2-225">
          <mxGeometry x="30" width="220" height="40" as="geometry" />
        </mxCell>
        <mxCell id="KoXOzmwsFEsIkhyT5DC2-171" value="PCX_CBD_SUMMARY" style="shape=table;startSize=30;container=1;collapsible=1;childLayout=tableLayout;fixedRows=1;rowLines=0;fontStyle=1;align=center;resizeLast=1;" vertex="1" parent="1">
          <mxGeometry x="480" y="680" width="250" height="170" as="geometry">
            <mxRectangle x="20" y="40" width="130" height="30" as="alternateBounds" />
          </mxGeometry>
        </mxCell>
        <mxCell id="KoXOzmwsFEsIkhyT5DC2-172" value="" style="shape=partialRectangle;collapsible=0;dropTarget=0;pointerEvents=0;fillColor=none;points=[[0,0.5],[1,0.5]];portConstraint=eastwest;top=0;left=0;right=0;bottom=1;" vertex="1" parent="KoXOzmwsFEsIkhyT5DC2-171">
          <mxGeometry y="30" width="250" height="30" as="geometry" />
        </mxCell>
        <mxCell id="KoXOzmwsFEsIkhyT5DC2-173" value="" style="shape=partialRectangle;overflow=hidden;connectable=0;fillColor=none;top=0;left=0;bottom=0;right=0;fontStyle=1;" vertex="1" parent="KoXOzmwsFEsIkhyT5DC2-172">
          <mxGeometry width="30" height="30" as="geometry" />
        </mxCell>
        <mxCell id="KoXOzmwsFEsIkhyT5DC2-174" value="CBD_KEY" style="shape=partialRectangle;overflow=hidden;connectable=0;fillColor=none;top=0;left=0;bottom=0;right=0;align=left;spacingLeft=6;fontStyle=5;" vertex="1" parent="KoXOzmwsFEsIkhyT5DC2-172">
          <mxGeometry x="30" width="220" height="30" as="geometry" />
        </mxCell>
        <mxCell id="KoXOzmwsFEsIkhyT5DC2-175" style="shape=partialRectangle;collapsible=0;dropTarget=0;pointerEvents=0;fillColor=none;points=[[0,0.5],[1,0.5]];portConstraint=eastwest;top=0;left=0;right=0;bottom=1;" vertex="1" parent="KoXOzmwsFEsIkhyT5DC2-171">
          <mxGeometry y="60" width="250" height="30" as="geometry" />
        </mxCell>
        <mxCell id="KoXOzmwsFEsIkhyT5DC2-176" style="shape=partialRectangle;overflow=hidden;connectable=0;fillColor=none;top=0;left=0;bottom=0;right=0;fontStyle=1;" vertex="1" parent="KoXOzmwsFEsIkhyT5DC2-175">
          <mxGeometry width="30" height="30" as="geometry" />
        </mxCell>
        <mxCell id="KoXOzmwsFEsIkhyT5DC2-177" value="CBD_VER" style="shape=partialRectangle;overflow=hidden;connectable=0;fillColor=none;top=0;left=0;bottom=0;right=0;align=left;spacingLeft=6;fontStyle=5;" vertex="1" parent="KoXOzmwsFEsIkhyT5DC2-175">
          <mxGeometry x="30" width="220" height="30" as="geometry" />
        </mxCell>
        <mxCell id="KoXOzmwsFEsIkhyT5DC2-178" style="shape=partialRectangle;collapsible=0;dropTarget=0;pointerEvents=0;fillColor=none;points=[[0,0.5],[1,0.5]];portConstraint=eastwest;top=0;left=0;right=0;bottom=1;" vertex="1" parent="KoXOzmwsFEsIkhyT5DC2-171">
          <mxGeometry y="90" width="250" height="30" as="geometry" />
        </mxCell>
        <mxCell id="KoXOzmwsFEsIkhyT5DC2-179" style="shape=partialRectangle;overflow=hidden;connectable=0;fillColor=none;top=0;left=0;bottom=0;right=0;fontStyle=1;" vertex="1" parent="KoXOzmwsFEsIkhyT5DC2-178">
          <mxGeometry width="30" height="30" as="geometry" />
        </mxCell>
        <mxCell id="KoXOzmwsFEsIkhyT5DC2-180" value="PROD_FACTORY" style="shape=partialRectangle;overflow=hidden;connectable=0;fillColor=none;top=0;left=0;bottom=0;right=0;align=left;spacingLeft=6;fontStyle=5;" vertex="1" parent="KoXOzmwsFEsIkhyT5DC2-178">
          <mxGeometry x="30" width="220" height="30" as="geometry" />
        </mxCell>
        <mxCell id="KoXOzmwsFEsIkhyT5DC2-181" style="shape=partialRectangle;collapsible=0;dropTarget=0;pointerEvents=0;fillColor=none;points=[[0,0.5],[1,0.5]];portConstraint=eastwest;top=0;left=0;right=0;bottom=1;" vertex="1" parent="KoXOzmwsFEsIkhyT5DC2-171">
          <mxGeometry y="120" width="250" height="30" as="geometry" />
        </mxCell>
        <mxCell id="KoXOzmwsFEsIkhyT5DC2-182" style="shape=partialRectangle;overflow=hidden;connectable=0;fillColor=none;top=0;left=0;bottom=0;right=0;fontStyle=1;" vertex="1" parent="KoXOzmwsFEsIkhyT5DC2-181">
          <mxGeometry width="30" height="30" as="geometry" />
        </mxCell>
        <mxCell id="KoXOzmwsFEsIkhyT5DC2-183" value="ROUND" style="shape=partialRectangle;overflow=hidden;connectable=0;fillColor=none;top=0;left=0;bottom=0;right=0;align=left;spacingLeft=6;fontStyle=5;" vertex="1" parent="KoXOzmwsFEsIkhyT5DC2-181">
          <mxGeometry x="30" width="220" height="30" as="geometry" />
        </mxCell>
        <mxCell id="KoXOzmwsFEsIkhyT5DC2-184" style="shape=partialRectangle;collapsible=0;dropTarget=0;pointerEvents=0;fillColor=none;points=[[0,0.5],[1,0.5]];portConstraint=eastwest;top=0;left=0;right=0;bottom=1;" vertex="1" parent="KoXOzmwsFEsIkhyT5DC2-171">
          <mxGeometry y="150" width="250" height="20" as="geometry" />
        </mxCell>
        <mxCell id="KoXOzmwsFEsIkhyT5DC2-185" style="shape=partialRectangle;overflow=hidden;connectable=0;fillColor=none;top=0;left=0;bottom=0;right=0;fontStyle=1;" vertex="1" parent="KoXOzmwsFEsIkhyT5DC2-184">
          <mxGeometry width="30" height="20" as="geometry" />
        </mxCell>
        <mxCell id="KoXOzmwsFEsIkhyT5DC2-186" value="QUOTE_DATE (MAX)" style="shape=partialRectangle;overflow=hidden;connectable=0;fillColor=none;top=0;left=0;bottom=0;right=0;align=left;spacingLeft=6;fontStyle=5;" vertex="1" parent="KoXOzmwsFEsIkhyT5DC2-184">
          <mxGeometry x="30" width="220" height="20" as="geometry" />
        </mxCell>
        <mxCell id="KoXOzmwsFEsIkhyT5DC2-193" value="" style="endArrow=none;html=1;entryX=0;entryY=0.5;entryDx=0;entryDy=0;exitX=0;exitY=0.5;exitDx=0;exitDy=0;" edge="1" parent="1" source="KoXOzmwsFEsIkhyT5DC2-175" target="KoXOzmwsFEsIkhyT5DC2-159">
          <mxGeometry width="50" height="50" relative="1" as="geometry">
            <mxPoint x="400" y="590" as="sourcePoint" />
            <mxPoint x="450" y="540" as="targetPoint" />
            <Array as="points">
              <mxPoint x="440" y="755" />
              <mxPoint x="440" y="630" />
              <mxPoint x="440" y="580" />
            </Array>
          </mxGeometry>
        </mxCell>
        <mxCell id="KoXOzmwsFEsIkhyT5DC2-196" value="" style="endArrow=none;html=1;entryX=1;entryY=0.5;entryDx=0;entryDy=0;exitX=1;exitY=0.5;exitDx=0;exitDy=0;" edge="1" parent="1" source="KoXOzmwsFEsIkhyT5DC2-172" target="KoXOzmwsFEsIkhyT5DC2-156">
          <mxGeometry width="50" height="50" relative="1" as="geometry">
            <mxPoint x="410" y="590" as="sourcePoint" />
            <mxPoint x="460" y="540" as="targetPoint" />
            <Array as="points">
              <mxPoint x="760" y="725" />
              <mxPoint x="760" y="600" />
              <mxPoint x="760" y="545" />
            </Array>
          </mxGeometry>
        </mxCell>
        <mxCell id="KoXOzmwsFEsIkhyT5DC2-198" value="" style="endArrow=none;html=1;exitX=1;exitY=0.5;exitDx=0;exitDy=0;entryX=0;entryY=0.5;entryDx=0;entryDy=0;" edge="1" parent="1" source="KoXOzmwsFEsIkhyT5DC2-49" target="KoXOzmwsFEsIkhyT5DC2-150">
          <mxGeometry width="50" height="50" relative="1" as="geometry">
            <mxPoint x="400" y="420" as="sourcePoint" />
            <mxPoint x="450" y="370" as="targetPoint" />
          </mxGeometry>
        </mxCell>
        <mxCell id="KoXOzmwsFEsIkhyT5DC2-201" value="" style="endArrow=none;html=1;" edge="1" parent="1">
          <mxGeometry width="50" height="50" relative="1" as="geometry">
            <mxPoint x="400" y="400" as="sourcePoint" />
            <mxPoint x="840" y="400" as="targetPoint" />
            <Array as="points" />
          </mxGeometry>
        </mxCell>
        <mxCell id="KoXOzmwsFEsIkhyT5DC2-202" value="" style="endArrow=none;html=1;" edge="1" parent="1">
          <mxGeometry width="50" height="50" relative="1" as="geometry">
            <mxPoint x="840" y="860" as="sourcePoint" />
            <mxPoint x="840" y="400" as="targetPoint" />
          </mxGeometry>
        </mxCell>
        <mxCell id="KoXOzmwsFEsIkhyT5DC2-203" value="" style="endArrow=none;html=1;" edge="1" parent="1">
          <mxGeometry width="50" height="50" relative="1" as="geometry">
            <mxPoint x="400" y="860" as="sourcePoint" />
            <mxPoint x="840" y="860" as="targetPoint" />
            <Array as="points">
              <mxPoint x="640" y="860" />
            </Array>
          </mxGeometry>
        </mxCell>
        <mxCell id="KoXOzmwsFEsIkhyT5DC2-205" value="" style="endArrow=none;html=1;" edge="1" parent="1">
          <mxGeometry width="50" height="50" relative="1" as="geometry">
            <mxPoint x="400" y="860" as="sourcePoint" />
            <mxPoint x="400" y="400" as="targetPoint" />
          </mxGeometry>
        </mxCell>
        <mxCell id="KoXOzmwsFEsIkhyT5DC2-208" value="D&lt;br style=&quot;font-size: 24px;&quot;&gt;" style="text;html=1;strokeColor=none;fillColor=none;align=center;verticalAlign=middle;whiteSpace=wrap;rounded=0;fontSize=24;" vertex="1" parent="1">
          <mxGeometry x="500" y="370" width="210" height="20" as="geometry" />
        </mxCell>
        <mxCell id="KoXOzmwsFEsIkhyT5DC2-211" value="B" style="text;html=1;strokeColor=none;fillColor=none;align=center;verticalAlign=middle;whiteSpace=wrap;rounded=0;fontSize=24;" vertex="1" parent="1">
          <mxGeometry x="715" y="20" width="40" height="20" as="geometry" />
        </mxCell>
        <mxCell id="KoXOzmwsFEsIkhyT5DC2-212" value="C" style="text;html=1;strokeColor=none;fillColor=none;align=center;verticalAlign=middle;whiteSpace=wrap;rounded=0;fontSize=24;" vertex="1" parent="1">
          <mxGeometry x="125" y="310" width="40" height="20" as="geometry" />
        </mxCell>
        <mxCell id="KoXOzmwsFEsIkhyT5DC2-213" value="A" style="text;html=1;strokeColor=none;fillColor=none;align=center;verticalAlign=middle;whiteSpace=wrap;rounded=0;fontSize=24;" vertex="1" parent="1">
          <mxGeometry x="120" y="-20" width="40" height="20" as="geometry" />
        </mxCell>
        <mxCell id="KoXOzmwsFEsIkhyT5DC2-217" value="" style="endArrow=none;html=1;fontSize=24;" edge="1" parent="1">
          <mxGeometry width="50" height="50" relative="1" as="geometry">
            <mxPoint x="460" y="270" as="sourcePoint" />
            <mxPoint x="1020" y="270" as="targetPoint" />
          </mxGeometry>
        </mxCell>
        <mxCell id="KoXOzmwsFEsIkhyT5DC2-218" value="" style="endArrow=none;html=1;fontSize=24;" edge="1" parent="1">
          <mxGeometry width="50" height="50" relative="1" as="geometry">
            <mxPoint x="1020" y="270" as="sourcePoint" />
            <mxPoint x="1020" y="10" as="targetPoint" />
          </mxGeometry>
        </mxCell>
        <mxCell id="KoXOzmwsFEsIkhyT5DC2-219" value="" style="endArrow=none;html=1;fontSize=24;" edge="1" parent="1">
          <mxGeometry width="50" height="50" relative="1" as="geometry">
            <mxPoint x="460" y="270" as="sourcePoint" />
            <mxPoint x="460" y="10" as="targetPoint" />
          </mxGeometry>
        </mxCell>
        <mxCell id="KoXOzmwsFEsIkhyT5DC2-220" value="" style="endArrow=none;html=1;fontSize=24;" edge="1" parent="1">
          <mxGeometry width="50" height="50" relative="1" as="geometry">
            <mxPoint x="460" y="10" as="sourcePoint" />
            <mxPoint x="1020" y="10" as="targetPoint" />
          </mxGeometry>
        </mxCell>
        <mxCell id="KoXOzmwsFEsIkhyT5DC2-221" value="" style="endArrow=none;html=1;fontSize=24;entryX=0;entryY=0.5;entryDx=0;entryDy=0;" edge="1" parent="1" target="KoXOzmwsFEsIkhyT5DC2-77">
          <mxGeometry width="50" height="50" relative="1" as="geometry">
            <mxPoint x="270" y="210" as="sourcePoint" />
            <mxPoint x="320" y="160" as="targetPoint" />
          </mxGeometry>
        </mxCell>
        <mxCell id="KoXOzmwsFEsIkhyT5DC2-222" value="" style="endArrow=none;html=1;fontSize=24;entryX=0;entryY=0.5;entryDx=0;entryDy=0;" edge="1" parent="1" target="KoXOzmwsFEsIkhyT5DC2-83">
          <mxGeometry width="50" height="50" relative="1" as="geometry">
            <mxPoint x="270" y="240" as="sourcePoint" />
            <mxPoint x="320" y="190" as="targetPoint" />
          </mxGeometry>
        </mxCell>
        <mxCell id="KoXOzmwsFEsIkhyT5DC2-223" value="" style="endArrow=none;html=1;fontSize=24;entryX=1;entryY=0.5;entryDx=0;entryDy=0;" edge="1" parent="1" target="KoXOzmwsFEsIkhyT5DC2-128">
          <mxGeometry width="50" height="50" relative="1" as="geometry">
            <mxPoint x="270" y="150" as="sourcePoint" />
            <mxPoint x="320" y="100" as="targetPoint" />
            <Array as="points">
              <mxPoint x="290" y="150" />
              <mxPoint x="290" y="250" />
              <mxPoint x="290" y="385" />
            </Array>
          </mxGeometry>
        </mxCell>
        <mxCell id="KoXOzmwsFEsIkhyT5DC2-224" value="" style="endArrow=none;html=1;fontSize=24;entryX=1;entryY=0.5;entryDx=0;entryDy=0;" edge="1" parent="1" target="KoXOzmwsFEsIkhyT5DC2-131">
          <mxGeometry width="50" height="50" relative="1" as="geometry">
            <mxPoint x="270" y="180" as="sourcePoint" />
            <mxPoint x="320" y="130" as="targetPoint" />
            <Array as="points">
              <mxPoint x="300" y="180" />
              <mxPoint x="300" y="290" />
              <mxPoint x="300" y="415" />
            </Array>
          </mxGeometry>
        </mxCell>
      </root>
    </mxGraphModel>
  </diagram>
</mxfile>
